<?xml version="1.0" encoding="UTF-8"?>
<svg id="Layer_1" data-name="Layer 1" xmlns="http://www.w3.org/2000/svg" viewBox="0 0 446.19 221.38">
  <defs>
    <style>
      .cls-1 {
        fill: #0f151c;
      }

      .cls-2 {
        fill: #23ffff;
      }
    </style>
  </defs>
  <rect class="cls-2" x="66.41" y="66.41" width="22.14" height="66.41" rx="2.77" ry="2.77"/>
  <rect class="cls-2" x="95.93" y="66.41" width="22.14" height="88.55" rx="2.77" ry="2.77"/>
  <path class="cls-1" d="M191.91,155.7v-25.61h-1.53c-.81,1.41-1.85,2.67-3.07,3.74-1.34,1.15-3.07,2.11-5.18,2.88-2.05.77-4.6,1.15-7.67,1.15-3.84.03-7.61-.96-10.94-2.88-3.32-1.92-5.98-4.67-7.96-8.25-1.98-3.65-2.97-8.03-2.97-13.14v-1.44c0-5.12.99-9.46,2.97-13.05,2.05-3.65,4.73-6.43,8.06-8.35,3.32-1.92,6.94-2.88,10.84-2.88,4.6,0,8.12.83,10.55,2.49,2.49,1.66,4.35,3.55,5.56,5.66h1.53v-6.81h9.69v66.48s-9.88,0-9.88,0ZM177.23,129.23c4.35,0,7.9-1.38,10.65-4.13,2.75-2.75,4.13-6.68,4.13-11.8v-.86c0-5.05-1.41-8.95-4.22-11.7-2.75-2.75-6.27-4.13-10.55-4.13s-7.74,1.38-10.55,4.13c-2.75,2.75-4.13,6.65-4.13,11.7v.86c0,5.12,1.38,9.05,4.13,11.8,2.82,2.75,6.33,4.13,10.55,4.13ZM227.75,137.38c-3.58,0-6.78-.8-9.59-2.4-2.81-1.59-5.11-3.96-6.62-6.81-1.6-2.94-2.4-6.46-2.4-10.55v-28.4h9.88v27.72c0,4.1,1.03,7.13,3.07,9.11,2.05,1.92,4.89,2.88,8.54,2.88,4.03,0,7.26-1.34,9.69-4.03,2.49-2.75,3.74-6.68,3.74-11.8v-23.89h9.88v47.29h-9.69v-7.1h-1.53c-.89,1.92-2.49,3.74-4.8,5.47-2.3,1.66-5.69,2.49-10.17,2.49ZM289.17,137.86c-4.6,0-8.15-.83-10.65-2.49-2.43-1.66-4.25-3.52-5.47-5.56h-1.53v6.72h-9.69v-67.15h9.88v26.29h1.53c.77-1.28,1.79-2.49,3.07-3.65,1.28-1.22,2.97-2.21,5.08-2.97,2.11-.77,4.7-1.15,7.77-1.15,3.97,0,7.61.96,10.94,2.88,3.32,1.92,5.98,4.7,7.96,8.35,1.98,3.65,2.97,8,2.97,13.05v1.44c0,5.12-1.02,9.5-3.07,13.14-1.98,3.58-4.64,6.33-7.96,8.25-3.26,1.92-6.87,2.88-10.84,2.88ZM286.29,129.23c4.28,0,7.8-1.38,10.55-4.13,2.82-2.75,4.22-6.68,4.22-11.8v-.86c0-5.05-1.38-8.95-4.13-11.7s-6.3-4.13-10.65-4.13-7.74,1.38-10.55,4.13c-2.75,2.75-4.13,6.65-4.13,11.7v.86c0,5.12,1.38,9.05,4.13,11.8,2.82,2.75,6.33,4.13,10.55,4.13ZM316.57,136.52v-47.29h9.88v47.29h-9.88ZM321.56,82.8c-1.92,0-3.55-.61-4.89-1.82-1.28-1.28-1.92-2.91-1.92-4.89s.64-3.58,1.92-4.8c1.31-1.27,3.07-1.96,4.89-1.92,1.99,0,3.62.64,4.89,1.92,1.28,1.22,1.92,2.82,1.92,4.8s-.64,3.62-1.92,4.89c-1.28,1.22-2.91,1.82-4.89,1.82ZM356.37,137.86c-4.54,0-8.66-.96-12.37-2.88-3.64-1.91-6.66-4.8-8.73-8.35-2.11-3.65-3.17-8.03-3.17-13.14v-1.25c0-5.12,1.06-9.46,3.17-13.05,2.07-3.55,5.1-6.44,8.73-8.35,3.71-1.98,7.83-2.97,12.37-2.97s8.41.83,11.61,2.49c3.2,1.66,5.76,3.87,7.67,6.62,1.96,2.7,3.28,5.82,3.84,9.11l-9.59,2.01c-.29-2.03-.98-3.99-2.01-5.76-1.04-1.74-2.53-3.17-4.32-4.13-1.86-1.02-4.19-1.53-7-1.53s-5.25.64-7.49,1.92c-2.17,1.22-3.9,3.01-5.18,5.37-1.28,2.3-1.92,5.12-1.92,8.44v.86c0,3.32.64,6.17,1.92,8.54,1.28,2.37,3,4.16,5.18,5.37,2.24,1.22,4.73,1.82,7.49,1.82,4.15,0,7.32-1.06,9.49-3.17,2.18-2.18,3.55-4.93,4.13-8.25l9.59,2.21c-.76,3.25-2.16,6.32-4.13,9.02-1.92,2.75-4.48,4.96-7.67,6.62-3.2,1.6-7.07,2.4-11.6,2.4h0Z"/>
</svg>