<?xml version="1.0" encoding="UTF-8"?>
<svg id="Layer_1" data-name="Layer 1" xmlns="http://www.w3.org/2000/svg" viewBox="0 0 185.19 221.38">
  <defs>
    <style>
      .cls-1 {
        fill: #23ffff;
      }
    </style>
  </defs>
  <path class="cls-1" d="M85.78,66.41h-16.6c-1.53,0-2.77,1.24-2.77,2.77v60.88c0,1.53,1.24,2.77,2.77,2.77h16.6c1.53,0,2.77-1.24,2.77-2.77v-60.88c0-1.53-1.24-2.77-2.77-2.77ZM115.3,66.41h-16.6c-1.53,0-2.77,1.24-2.77,2.77v83.02c0,1.53,1.24,2.77,2.77,2.77h16.6c1.53,0,2.77-1.24,2.77-2.77v-83.02c0-1.53-1.24-2.77-2.77-2.77Z"/>
</svg>